<svg xmlns="http://www.w3.org/2000/svg" xmlns:xlink="http://www.w3.org/1999/xlink" width="16" height="16" viewBox="0 0 16 16">
  <defs>
    <clipPath id="clip-path">
      <path id="Path_13" data-name="Path 13" d="M12-18.4A6.4,6.4,0,0,1,18.4-12,6.4,6.4,0,0,1,12-5.6,6.4,6.4,0,0,1,5.6-12,6.4,6.4,0,0,1,12-18.4ZM12-20a8,8,0,0,0-8,8,8,8,0,0,0,8,8,8,8,0,0,0,8-8A8,8,0,0,0,12-20Zm0,9.2a.8.8,0,0,1-.8-.8v-3.2a.8.8,0,0,1,.8-.8.8.8,0,0,1,.8.8v3.2A.8.8,0,0,1,12-10.8ZM12-8a.8.8,0,0,1-.8-.8.8.8,0,0,1,.8-.8.8.8,0,0,1,.8.8A.8.8,0,0,1,12-8Z" fill="none" clip-rule="evenodd"/>
    </clipPath>
    <clipPath id="clip-path-2">
      <path id="Path_12" data-name="Path 12" d="M0,0H24V-24H0Z" fill="none"/>
    </clipPath>
    <clipPath id="clip-path-3">
      <rect id="Rectangle_4" data-name="Rectangle 4" width="26" height="26" transform="translate(-1 -25)" fill="none"/>
    </clipPath>
    <clipPath id="clip-path-4">
      <path id="Path_11" data-name="Path 11" d="M4-4H20V-20H4Z" fill="none"/>
    </clipPath>
  </defs>
  <g id="Group_17" data-name="Group 17" transform="translate(-4 20)">
    <g id="Group_16" data-name="Group 16" clip-path="url(#clip-path)">
      <g id="Group_15" data-name="Group 15" clip-path="url(#clip-path-2)">
        <g id="Group_14" data-name="Group 14" clip-path="url(#clip-path-3)">
          <g id="Group_13" data-name="Group 13" clip-path="url(#clip-path-4)">
            <path id="Path_10" data-name="Path 10" d="M-1,1H25V-25H-1Z" fill="#fa4a45"/>
          </g>
        </g>
      </g>
    </g>
  </g>
</svg>
